<?xml version="1.0" standalone="no"?>
<!DOCTYPE svg PUBLIC "-//W3C//DTD SVG 20010904//EN"
 "http://www.w3.org/TR/2001/REC-SVG-20010904/DTD/svg10.dtd">
<svg version="1.0" xmlns="http://www.w3.org/2000/svg"
 width="512.000000pt" height="512.000000pt" viewBox="0 0 512.000000 512.000000"
 preserveAspectRatio="xMidYMid meet">
<metadata>
Created by potrace 1.14, written by Peter Selinger 2001-2017
</metadata>
<g transform="translate(0.000000,512.000000) scale(0.100000,-0.100000)"
fill="#000000" stroke="none">
<path d="M2502 5100 c-41 -34 -42 -44 -42 -455 l0 -397 -51 46 c-63 56 -202
128 -286 146 l-63 14 0 114 c0 137 -11 165 -71 183 -35 11 -45 10 -74 -5 -19
-10 -38 -30 -44 -45 -8 -19 -11 -519 -9 -1751 3 -1719 3 -1725 24 -1786 82
-237 248 -403 477 -474 34 -11 70 -20 80 -20 16 0 17 -21 17 -295 0 -337 2
-346 70 -366 49 -15 89 -1 113 40 15 26 17 65 17 325 0 289 0 296 20 296 32 0
171 51 225 83 151 88 259 220 321 392 l29 80 3 1725 c2 1202 -1 1733 -8 1751
-12 27 -57 59 -85 59 -31 0 -82 -31 -94 -56 -6 -14 -11 -75 -11 -138 l0 -113
-56 -11 c-77 -16 -208 -80 -276 -135 -32 -26 -60 -47 -63 -47 -3 0 -5 175 -5
390 0 270 -3 397 -11 414 -23 49 -105 69 -147 36z"/>
<path d="M4373 4848 c-23 -11 -53 -64 -53 -93 0 -9 7 -30 17 -45 40 -68 134
-65 168 5 19 42 19 60 -2 95 -27 46 -81 62 -130 38z"/>
<path d="M648 4743 c-14 -9 -31 -27 -37 -40 -7 -16 -11 -150 -11 -391 l0 -366
-37 36 c-74 70 -196 134 -308 160 l-55 13 0 113 c0 88 -4 120 -17 142 -38 66
-128 66 -166 0 -16 -26 -17 -127 -16 -1277 1 -1397 -3 -1320 74 -1478 71 -148
181 -256 328 -325 45 -21 108 -44 140 -51 l57 -14 0 -333 0 -333 -53 40 c-98
73 -240 127 -398 152 -60 9 -72 8 -98 -7 -55 -33 -65 -116 -18 -157 20 -17 33
-21 168 -51 244 -54 378 -198 396 -426 7 -97 22 -126 73 -141 49 -15 89 -1
113 40 15 26 17 83 17 623 l0 594 72 17 c213 52 404 221 481 427 48 129 47 94
47 1423 0 1150 -1 1251 -17 1277 -37 63 -116 66 -164 6 -13 -16 -17 -45 -18
-140 -1 -66 -3 -121 -4 -123 -1 -1 -14 -4 -27 -6 -124 -23 -289 -108 -352
-182 -16 -19 -17 -1 -18 347 0 242 -4 375 -11 391 -13 29 -58 57 -91 57 -12 0
-35 -8 -50 -17z"/>
<path d="M3774 4449 c-11 -6 -28 -23 -37 -39 -16 -26 -17 -125 -17 -1272 1
-1331 0 -1314 51 -1438 47 -114 150 -245 246 -311 65 -45 175 -95 242 -110
l60 -13 3 -606 c2 -496 6 -610 17 -623 7 -9 31 -22 52 -28 76 -23 126 24 130
122 11 242 164 404 430 454 73 14 86 17 111 27 26 10 58 60 58 92 0 25 -20 61
-42 75 -36 22 -69 23 -167 1 -162 -36 -258 -78 -353 -152 l-38 -30 0 335 0
335 38 7 c122 22 262 97 357 192 98 97 168 232 194 373 6 35 10 502 11 1298 0
1145 -1 1246 -17 1272 -29 49 -83 63 -133 33 -42 -24 -50 -53 -50 -178 0 -85
-3 -115 -12 -116 -100 -6 -295 -101 -365 -179 l-22 -25 -1 193 c0 163 -3 198
-17 222 -28 48 -80 62 -132 36 -46 -24 -51 -51 -51 -257 l0 -190 -27 26 c-50
47 -115 88 -233 144 -8 4 -43 14 -77 21 l-63 14 0 113 c0 61 -5 123 -11 136
-21 47 -87 69 -135 46z"/>
</g>
</svg>
